<mxfile host="app.diagrams.net" agent="Mozilla/5.0 (Windows NT 10.0; Win64; x64) AppleWebKit/537.36 (KHTML, like Gecko) Chrome/126.0.0.0 Safari/537.36" version="24.7.4">
  <diagram name="Page-1" id="e7e014a7-5840-1c2e-5031-d8a46d1fe8dd">
    <mxGraphModel dx="1710" dy="746" grid="1" gridSize="10" guides="1" tooltips="1" connect="1" arrows="1" fold="1" page="1" pageScale="1" pageWidth="1169" pageHeight="826" background="none" math="0" shadow="0">
      <root>
        <mxCell id="0" />
        <mxCell id="1" parent="0" />
        <mxCell id="02nyzYrqLC2eCzCffFgB-52" style="edgeStyle=orthogonalEdgeStyle;rounded=0;orthogonalLoop=1;jettySize=auto;html=1;entryX=0.5;entryY=0;entryDx=0;entryDy=0;" edge="1" parent="1" source="02nyzYrqLC2eCzCffFgB-41" target="02nyzYrqLC2eCzCffFgB-43">
          <mxGeometry relative="1" as="geometry" />
        </mxCell>
        <mxCell id="02nyzYrqLC2eCzCffFgB-53" style="edgeStyle=orthogonalEdgeStyle;rounded=0;orthogonalLoop=1;jettySize=auto;html=1;entryX=0;entryY=0.5;entryDx=0;entryDy=0;" edge="1" parent="1" source="02nyzYrqLC2eCzCffFgB-41" target="02nyzYrqLC2eCzCffFgB-44">
          <mxGeometry relative="1" as="geometry" />
        </mxCell>
        <mxCell id="02nyzYrqLC2eCzCffFgB-54" style="edgeStyle=orthogonalEdgeStyle;rounded=0;orthogonalLoop=1;jettySize=auto;html=1;entryX=1;entryY=0.5;entryDx=0;entryDy=0;" edge="1" parent="1" source="02nyzYrqLC2eCzCffFgB-41" target="02nyzYrqLC2eCzCffFgB-42">
          <mxGeometry relative="1" as="geometry" />
        </mxCell>
        <mxCell id="02nyzYrqLC2eCzCffFgB-41" value="Login" style="rounded=0;whiteSpace=wrap;html=1;" vertex="1" parent="1">
          <mxGeometry x="400" y="20" width="120" height="50" as="geometry" />
        </mxCell>
        <mxCell id="02nyzYrqLC2eCzCffFgB-56" style="edgeStyle=orthogonalEdgeStyle;rounded=0;orthogonalLoop=1;jettySize=auto;html=1;entryX=0.5;entryY=0;entryDx=0;entryDy=0;" edge="1" parent="1" source="02nyzYrqLC2eCzCffFgB-42" target="02nyzYrqLC2eCzCffFgB-45">
          <mxGeometry relative="1" as="geometry" />
        </mxCell>
        <mxCell id="02nyzYrqLC2eCzCffFgB-42" value="Admin" style="rounded=0;whiteSpace=wrap;html=1;" vertex="1" parent="1">
          <mxGeometry x="140" y="160" width="120" height="60" as="geometry" />
        </mxCell>
        <mxCell id="02nyzYrqLC2eCzCffFgB-57" style="edgeStyle=orthogonalEdgeStyle;rounded=0;orthogonalLoop=1;jettySize=auto;html=1;" edge="1" parent="1" source="02nyzYrqLC2eCzCffFgB-43" target="02nyzYrqLC2eCzCffFgB-47">
          <mxGeometry relative="1" as="geometry" />
        </mxCell>
        <mxCell id="02nyzYrqLC2eCzCffFgB-43" value="Client" style="rounded=0;whiteSpace=wrap;html=1;" vertex="1" parent="1">
          <mxGeometry x="400" y="160" width="120" height="60" as="geometry" />
        </mxCell>
        <mxCell id="02nyzYrqLC2eCzCffFgB-65" style="edgeStyle=orthogonalEdgeStyle;rounded=0;orthogonalLoop=1;jettySize=auto;html=1;entryX=0.5;entryY=0;entryDx=0;entryDy=0;" edge="1" parent="1" source="02nyzYrqLC2eCzCffFgB-44" target="02nyzYrqLC2eCzCffFgB-64">
          <mxGeometry relative="1" as="geometry" />
        </mxCell>
        <mxCell id="02nyzYrqLC2eCzCffFgB-44" value="Provider" style="rounded=0;whiteSpace=wrap;html=1;" vertex="1" parent="1">
          <mxGeometry x="680" y="160" width="120" height="60" as="geometry" />
        </mxCell>
        <mxCell id="02nyzYrqLC2eCzCffFgB-45" value="Manage Access to Client and Provider" style="rounded=0;whiteSpace=wrap;html=1;" vertex="1" parent="1">
          <mxGeometry x="140" y="293" width="120" height="60" as="geometry" />
        </mxCell>
        <mxCell id="02nyzYrqLC2eCzCffFgB-59" style="edgeStyle=orthogonalEdgeStyle;rounded=0;orthogonalLoop=1;jettySize=auto;html=1;entryX=0;entryY=0.5;entryDx=0;entryDy=0;" edge="1" parent="1" source="02nyzYrqLC2eCzCffFgB-46" target="02nyzYrqLC2eCzCffFgB-48">
          <mxGeometry relative="1" as="geometry" />
        </mxCell>
        <mxCell id="02nyzYrqLC2eCzCffFgB-46" value="Request for loan from providers" style="rounded=0;whiteSpace=wrap;html=1;" vertex="1" parent="1">
          <mxGeometry x="400" y="430" width="120" height="60" as="geometry" />
        </mxCell>
        <mxCell id="02nyzYrqLC2eCzCffFgB-58" style="edgeStyle=orthogonalEdgeStyle;rounded=0;orthogonalLoop=1;jettySize=auto;html=1;entryX=0.5;entryY=0;entryDx=0;entryDy=0;" edge="1" parent="1" source="02nyzYrqLC2eCzCffFgB-47" target="02nyzYrqLC2eCzCffFgB-46">
          <mxGeometry relative="1" as="geometry" />
        </mxCell>
        <mxCell id="02nyzYrqLC2eCzCffFgB-47" value="Search for loans based on categories" style="rounded=0;whiteSpace=wrap;html=1;" vertex="1" parent="1">
          <mxGeometry x="400" y="293" width="120" height="60" as="geometry" />
        </mxCell>
        <mxCell id="02nyzYrqLC2eCzCffFgB-48" value="Track requests from Clients" style="rounded=0;whiteSpace=wrap;html=1;" vertex="1" parent="1">
          <mxGeometry x="670" y="300" width="120" height="60" as="geometry" />
        </mxCell>
        <mxCell id="02nyzYrqLC2eCzCffFgB-62" style="edgeStyle=orthogonalEdgeStyle;rounded=0;orthogonalLoop=1;jettySize=auto;html=1;entryX=0.5;entryY=0;entryDx=0;entryDy=0;" edge="1" parent="1" source="02nyzYrqLC2eCzCffFgB-49" target="02nyzYrqLC2eCzCffFgB-51">
          <mxGeometry relative="1" as="geometry">
            <Array as="points">
              <mxPoint x="740" y="530" />
              <mxPoint x="460" y="530" />
            </Array>
          </mxGeometry>
        </mxCell>
        <mxCell id="02nyzYrqLC2eCzCffFgB-49" value="Verify&amp;nbsp; and provide loans" style="rounded=0;whiteSpace=wrap;html=1;" vertex="1" parent="1">
          <mxGeometry x="680" y="430" width="120" height="60" as="geometry" />
        </mxCell>
        <mxCell id="02nyzYrqLC2eCzCffFgB-50" value="After duration collects the loan amount" style="rounded=0;whiteSpace=wrap;html=1;" vertex="1" parent="1">
          <mxGeometry x="690" y="600" width="120" height="60" as="geometry" />
        </mxCell>
        <mxCell id="02nyzYrqLC2eCzCffFgB-63" style="edgeStyle=orthogonalEdgeStyle;rounded=0;orthogonalLoop=1;jettySize=auto;html=1;entryX=0;entryY=0.75;entryDx=0;entryDy=0;" edge="1" parent="1" source="02nyzYrqLC2eCzCffFgB-51" target="02nyzYrqLC2eCzCffFgB-50">
          <mxGeometry relative="1" as="geometry" />
        </mxCell>
        <mxCell id="02nyzYrqLC2eCzCffFgB-51" value="Get loans from Provider" style="rounded=0;whiteSpace=wrap;html=1;" vertex="1" parent="1">
          <mxGeometry x="400" y="560" width="120" height="70" as="geometry" />
        </mxCell>
        <mxCell id="02nyzYrqLC2eCzCffFgB-61" style="edgeStyle=orthogonalEdgeStyle;rounded=0;orthogonalLoop=1;jettySize=auto;html=1;entryX=0.425;entryY=0.008;entryDx=0;entryDy=0;entryPerimeter=0;" edge="1" parent="1" source="02nyzYrqLC2eCzCffFgB-48" target="02nyzYrqLC2eCzCffFgB-49">
          <mxGeometry relative="1" as="geometry" />
        </mxCell>
        <mxCell id="02nyzYrqLC2eCzCffFgB-64" value="Search Clients to&amp;nbsp; provide loan" style="rounded=0;whiteSpace=wrap;html=1;" vertex="1" parent="1">
          <mxGeometry x="880" y="300" width="120" height="60" as="geometry" />
        </mxCell>
      </root>
    </mxGraphModel>
  </diagram>
</mxfile>
